<?xml version="1.0" encoding="UTF-8" standalone="no"?><!DOCTYPE svg PUBLIC "-//W3C//DTD SVG 1.1//EN" "http://www.w3.org/Graphics/SVG/1.1/DTD/svg11.dtd"><!-- Generated by graphviz version 2.40.1 (20161225.0304)
 --><!-- Title: finite_state_machine Pages: 1 --><svg xmlns="http://www.w3.org/2000/svg" xmlns:xlink="http://www.w3.org/1999/xlink" width="303pt" height="360pt" viewBox="0.00 0.00 302.71 360.00">
<g id="graph0" class="graph" transform="scale(.261 .261) rotate(0) translate(4 1375.3836)">
<title>finite_state_machine</title>
<polygon fill="#ffffff" stroke="transparent" points="-4,4 -4,-1375.3836 1155.8649,-1375.3836 1155.8649,4 -4,4"/>
<!-- Start -->
<g id="node1" class="node">
<title>Start</title>
<polygon fill="none" stroke="#000000" points="41.3992,-522.3854 .1006,-504.3854 41.3992,-486.3854 82.6978,-504.3854 41.3992,-522.3854"/>
<text text-anchor="middle" x="41.3992" y="-500.1854" font-family="Times,serif" font-size="14.00" fill="#000000">Start</text>
</g>
<!-- OPERATOR -->
<g id="node2" class="node">
<title>OPERATOR</title>
<ellipse fill="none" stroke="#000000" cx="262.6841" cy="-1305.3854" rx="61.9964" ry="61.9964"/>
<ellipse fill="none" stroke="#000000" cx="262.6841" cy="-1305.3854" rx="65.9963" ry="65.9963"/>
<text text-anchor="middle" x="262.6841" y="-1301.1854" font-family="Times,serif" font-size="14.00" fill="#000000">OPERATOR</text>
</g>
<!-- Start&#45;&gt;OPERATOR -->
<g id="edge1" class="edge">
<title>Start-&gt;OPERATOR</title>
<path fill="none" stroke="#000000" d="M42.0193,-522.1711C45.199,-608.2486 61.0923,-981.8707 100.7984,-1090.3854 123.4706,-1152.3476 170.3873,-1211.3701 207.9033,-1251.8429"/>
<polygon fill="#000000" stroke="#000000" points="205.3951,-1254.2849 214.791,-1259.1808 210.499,-1249.4942 205.3951,-1254.2849"/>
<text text-anchor="middle" x="139.7422" y="-1218.5854" font-family="Times,serif" font-size="14.00" fill="#000000">*note1</text>
</g>
<!-- SLCMT -->
<g id="node3" class="node">
<title>SLCMT</title>
<ellipse fill="none" stroke="#000000" cx="262.6841" cy="-1144.3854" rx="43.4571" ry="43.4571"/>
<text text-anchor="middle" x="262.6841" y="-1140.1854" font-family="Times,serif" font-size="14.00" fill="#000000">SLCMT</text>
</g>
<!-- Start&#45;&gt;SLCMT -->
<g id="edge4" class="edge">
<title>Start-&gt;SLCMT</title>
<path fill="none" stroke="#000000" d="M42.9616,-522.0766C49.2911,-592.1475 73.9729,-850.1523 100.7984,-927.3854 128.5012,-1007.1446 141.5447,-1027.4447 196.686,-1091.3854 203.308,-1099.0642 211.1549,-1106.4539 219.0853,-1113.1526"/>
<polygon fill="#000000" stroke="#000000" points="217.039,-1116 227.0013,-1119.606 221.4621,-1110.5745 217.039,-1116"/>
<text text-anchor="middle" x="139.7422" y="-1073.5854" font-family="Times,serif" font-size="14.00" fill="#000000">'//'</text>
</g>
<!-- MLCMT -->
<g id="node4" class="node">
<title>MLCMT</title>
<ellipse fill="none" stroke="#000000" cx="262.6841" cy="-968.3854" rx="46.3875" ry="46.3875"/>
<text text-anchor="middle" x="262.6841" y="-964.1854" font-family="Times,serif" font-size="14.00" fill="#000000">MLCMT</text>
</g>
<!-- Start&#45;&gt;MLCMT -->
<g id="edge5" class="edge">
<title>Start-&gt;MLCMT</title>
<path fill="none" stroke="#000000" d="M43.3757,-521.7318C50.1344,-579.2507 73.4266,-763.0154 100.7984,-815.3854 127.4438,-866.3656 177.7809,-909.7578 215.2812,-937.1679"/>
<polygon fill="#000000" stroke="#000000" points="213.3896,-940.1185 223.5536,-943.1091 217.4731,-934.4329 213.3896,-940.1185"/>
<text text-anchor="middle" x="139.7422" y="-910.5854" font-family="Times,serif" font-size="14.00" fill="#000000">'/*' / dpt1 = 1</text>
</g>
<!-- SP -->
<g id="node5" class="node">
<title>SP</title>
<ellipse fill="none" stroke="#000000" cx="262.6841" cy="-844.3854" rx="21.5831" ry="21.5831"/>
<ellipse fill="none" stroke="#000000" cx="262.6841" cy="-844.3854" rx="25.5482" ry="25.5482"/>
<text text-anchor="middle" x="262.6841" y="-840.1854" font-family="Times,serif" font-size="14.00" fill="#000000">SP</text>
</g>
<!-- Start&#45;&gt;SP -->
<g id="edge2" class="edge">
<title>Start-&gt;SP</title>
<path fill="none" stroke="#000000" d="M43.6457,-521.4803C48.9871,-557.7911 64.7887,-644.4333 100.7984,-707.3854 131.692,-761.3936 147.2271,-771.6348 196.686,-809.3854 206.733,-817.054 218.6947,-823.9561 229.6575,-829.564"/>
<polygon fill="#000000" stroke="#000000" points="228.4436,-832.8676 238.9611,-834.1457 231.5362,-826.5878 228.4436,-832.8676"/>
<text text-anchor="middle" x="139.7422" y="-798.5854" font-family="Times,serif" font-size="14.00" fill="#000000">(SP|FF|TAB)</text>
</g>
<!-- LF -->
<g id="node6" class="node">
<title>LF</title>
<ellipse fill="none" stroke="#000000" cx="262.6841" cy="-740.3854" rx="22.1395" ry="22.1395"/>
<ellipse fill="none" stroke="#000000" cx="262.6841" cy="-740.3854" rx="26.1099" ry="26.1099"/>
<text text-anchor="middle" x="262.6841" y="-736.1854" font-family="Times,serif" font-size="14.00" fill="#000000">LF</text>
</g>
<!-- Start&#45;&gt;LF -->
<g id="edge3" class="edge">
<title>Start-&gt;LF</title>
<path fill="none" stroke="#000000" d="M49.4644,-519.1629C69.7944,-555.2278 126.5524,-648.8518 196.686,-704.3854 206.6785,-712.2978 218.6514,-719.4122 229.6396,-725.186"/>
<polygon fill="#000000" stroke="#000000" points="228.0702,-728.3145 238.5729,-729.7088 231.2321,-722.0693 228.0702,-728.3145"/>
<text text-anchor="middle" x="139.7422" y="-690.5854" font-family="Times,serif" font-size="14.00" fill="#000000">(LF|CR+LF)</text>
</g>
<!-- N_dec -->
<g id="node12" class="node">
<title>N_dec</title>
<ellipse fill="none" stroke="#000000" cx="262.6841" cy="-621.3854" rx="36.4541" ry="36.4541"/>
<ellipse fill="none" stroke="#000000" cx="262.6841" cy="-621.3854" rx="40.4779" ry="40.4779"/>
<text text-anchor="middle" x="262.6841" y="-617.1854" font-family="Times,serif" font-size="14.00" fill="#000000">N_dec</text>
</g>
<!-- Start&#45;&gt;N_dec -->
<g id="edge14" class="edge">
<title>Start-&gt;N_dec</title>
<path fill="none" stroke="#000000" d="M60.2658,-514.3608C94.9266,-532.687 169.6071,-572.1728 217.9239,-597.7194"/>
<polygon fill="#000000" stroke="#000000" points="216.4432,-600.8955 226.9196,-602.4756 219.7151,-594.7073 216.4432,-600.8955"/>
<text text-anchor="middle" x="139.7422" y="-580.5854" font-family="Times,serif" font-size="14.00" fill="#000000">/[0-9]/</text>
</g>
<!-- ID -->
<g id="node15" class="node">
<title>ID</title>
<ellipse fill="none" stroke="#000000" cx="262.6841" cy="-504.3854" rx="21.4117" ry="21.4117"/>
<ellipse fill="none" stroke="#000000" cx="262.6841" cy="-504.3854" rx="25.4473" ry="25.4473"/>
<text text-anchor="middle" x="262.6841" y="-500.1854" font-family="Times,serif" font-size="14.00" fill="#000000">ID</text>
</g>
<!-- Start&#45;&gt;ID -->
<g id="edge25" class="edge">
<title>Start-&gt;ID</title>
<path fill="none" stroke="#000000" d="M82.7616,-504.3854C124.3569,-504.3854 187.8114,-504.3854 227.1887,-504.3854"/>
<polygon fill="#000000" stroke="#000000" points="227.377,-507.8855 237.377,-504.3854 227.377,-500.8855 227.377,-507.8855"/>
<text text-anchor="middle" x="139.7422" y="-508.5854" font-family="Times,serif" font-size="14.00" fill="#000000">/[a-zA-Z_]/</text>
</g>
<!-- STR -->
<g id="node16" class="node">
<title>STR</title>
<ellipse fill="none" stroke="#000000" cx="262.6841" cy="-398.3854" rx="28.991" ry="28.991"/>
<text text-anchor="middle" x="262.6841" y="-394.1854" font-family="Times,serif" font-size="14.00" fill="#000000">STR</text>
</g>
<!-- Start&#45;&gt;STR -->
<g id="edge27" class="edge">
<title>Start-&gt;STR</title>
<path fill="none" stroke="#000000" d="M46.6544,-488.5062C54.6378,-467.167 72.0142,-429.9177 100.7984,-412.5854 138.0347,-390.1638 189.0832,-389.5863 223.8335,-392.6815"/>
<polygon fill="#000000" stroke="#000000" points="223.7543,-396.1919 234.0615,-393.7399 224.4749,-389.2291 223.7543,-396.1919"/>
<text text-anchor="middle" x="139.7422" y="-416.5854" font-family="Times,serif" font-size="14.00" fill="#000000">'"'</text>
</g>
<!-- Start&#45;&gt;STR -->
<g id="edge36" class="edge">
<title>Start-&gt;STR</title>
<path fill="none" stroke="#000000" d="M61.427,-494.7917C98.9506,-476.8171 180.2813,-437.8581 227.2578,-415.3554"/>
<polygon fill="#000000" stroke="#000000" points="228.9456,-418.4278 236.4522,-410.951 225.9215,-412.1147 228.9456,-418.4278"/>
<text text-anchor="middle" x="139.7422" y="-476.5854" font-family="Times,serif" font-size="14.00" fill="#000000">')' / *note3</text>
</g>
<!-- MLSTR -->
<g id="node17" class="node">
<title>MLSTR</title>
<ellipse fill="none" stroke="#000000" cx="262.6841" cy="-169.3854" rx="43.4571" ry="43.4571"/>
<text text-anchor="middle" x="262.6841" y="-165.1854" font-family="Times,serif" font-size="14.00" fill="#000000">MLSTR</text>
</g>
<!-- Start&#45;&gt;MLSTR -->
<g id="edge28" class="edge">
<title>Start-&gt;MLSTR</title>
<path fill="none" stroke="#000000" d="M43.0934,-487.11C47.3758,-450.4913 61.263,-363.5203 100.7984,-303.5854 130.574,-258.4462 180.0907,-220.614 216.535,-196.7453"/>
<polygon fill="#000000" stroke="#000000" points="218.5162,-199.6325 225.0311,-191.2774 214.7279,-193.7461 218.5162,-199.6325"/>
<text text-anchor="middle" x="139.7422" y="-307.5854" font-family="Times,serif" font-size="14.00" fill="#000000">'"""'</text>
</g>
<!-- Start&#45;&gt;MLSTR -->
<g id="edge45" class="edge">
<title>Start-&gt;MLSTR</title>
<path fill="none" stroke="#000000" d="M42.4516,-486.574C46.2474,-428.5193 61.1674,-246.1695 100.7984,-205.5854 128.6342,-177.0802 173.6616,-168.8119 209.1705,-167.2329"/>
<polygon fill="#000000" stroke="#000000" points="209.4837,-170.7256 219.3821,-166.9478 209.2883,-163.7284 209.4837,-170.7256"/>
<text text-anchor="middle" x="139.7422" y="-210.5854" font-family="Times,serif" font-size="14.00" fill="#000000">')' / *note3</text>
</g>
<!-- SLCMT&#45;&gt;SLCMT -->
<g id="edge8" class="edge">
<title>SLCMT-&gt;SLCMT</title>
<path fill="none" stroke="#000000" d="M239.844,-1181.1468C239.225,-1194.5959 246.8384,-1205.6134 262.6841,-1205.6134 274.3208,-1205.6134 281.5177,-1199.6716 284.2749,-1191.1884"/>
<polygon fill="#000000" stroke="#000000" points="287.7627,-1191.5025 285.5242,-1181.1468 280.8163,-1190.6382 287.7627,-1191.5025"/>
<text text-anchor="middle" x="262.6841" y="-1209.8134" font-family="Times,serif" font-size="14.00" fill="#000000">any</text>
</g>
<!-- SLCMT_e -->
<g id="node7" class="node">
<title>SLCMT_e</title>
<ellipse fill="none" stroke="#000000" cx="501.4363" cy="-1144.3854" rx="52.1978" ry="52.1978"/>
<ellipse fill="none" stroke="#000000" cx="501.4363" cy="-1144.3854" rx="56.1867" ry="56.1867"/>
<text text-anchor="middle" x="501.4363" y="-1140.1854" font-family="Times,serif" font-size="14.00" fill="#000000">SLCMT_e</text>
</g>
<!-- SLCMT&#45;&gt;SLCMT_e -->
<g id="edge9" class="edge">
<title>SLCMT-&gt;SLCMT_e</title>
<path fill="none" stroke="#000000" d="M305.9203,-1144.3854C341.8456,-1144.3854 393.5605,-1144.3854 434.7808,-1144.3854"/>
<polygon fill="#000000" stroke="#000000" points="435.0184,-1147.8855 445.0184,-1144.3854 435.0184,-1140.8855 435.0184,-1147.8855"/>
<text text-anchor="middle" x="384.8666" y="-1148.5854" font-family="Times,serif" font-size="14.00" fill="#000000">(LF|CR|EOF)</text>
</g>
<!-- MLCMT&#45;&gt;MLCMT -->
<g id="edge10" class="edge">
<title>MLCMT-&gt;MLCMT</title>
<path fill="none" stroke="#000000" d="M251.4253,-1013.5558C252.2593,-1024.6058 256.0122,-1032.8291 262.6841,-1032.8291 267.0625,-1032.8291 270.1839,-1029.2876 272.0481,-1023.7299"/>
<polygon fill="#000000" stroke="#000000" points="275.5528,-1024.0276 273.9429,-1013.5558 268.6711,-1022.7459 275.5528,-1024.0276"/>
<text text-anchor="middle" x="262.6841" y="-1037.0291" font-family="Times,serif" font-size="14.00" fill="#000000">any</text>
</g>
<!-- MLCMT&#45;&gt;MLCMT -->
<g id="edge11" class="edge">
<title>MLCMT-&gt;MLCMT</title>
<path fill="none" stroke="#000000" d="M240.6817,-1009.5325C237.1215,-1031.1969 244.4556,-1050.8291 262.6841,-1050.8291 277.922,-1050.8291 285.547,-1037.1103 285.5591,-1019.9536"/>
<polygon fill="#000000" stroke="#000000" points="289.0088,-1019.2055 284.6865,-1009.5325 282.0332,-1019.7897 289.0088,-1019.2055"/>
<text text-anchor="middle" x="262.6841" y="-1055.0291" font-family="Times,serif" font-size="14.00" fill="#000000">'/*' / dpt1++</text>
</g>
<!-- MLCMT_e -->
<g id="node8" class="node">
<title>MLCMT_e</title>
<ellipse fill="none" stroke="#000000" cx="501.4363" cy="-968.3854" rx="55.6139" ry="55.6139"/>
<ellipse fill="none" stroke="#000000" cx="501.4363" cy="-968.3854" rx="59.6178" ry="59.6178"/>
<text text-anchor="middle" x="501.4363" y="-964.1854" font-family="Times,serif" font-size="14.00" fill="#000000">MLCMT_e</text>
</g>
<!-- MLCMT&#45;&gt;MLCMT_e -->
<g id="edge12" class="edge">
<title>MLCMT-&gt;MLCMT_e</title>
<path fill="none" stroke="#000000" d="M309.2847,-968.3854C344.1147,-968.3854 392.3103,-968.3854 431.7193,-968.3854"/>
<polygon fill="#000000" stroke="#000000" points="431.7965,-971.8855 441.7965,-968.3854 431.7965,-964.8855 431.7965,-971.8855"/>
<text text-anchor="middle" x="384.8666" y="-972.5854" font-family="Times,serif" font-size="14.00" fill="#000000">'*/' / dpt1--</text>
</g>
<!-- SP&#45;&gt;SP -->
<g id="edge6" class="edge">
<title>SP-&gt;SP</title>
<path fill="none" stroke="#000000" d="M242.7634,-861.4591C235.3134,-874.6771 241.9536,-888.1585 262.6841,-888.1585 278.232,-888.1585 285.8541,-880.5752 285.5504,-871.2072"/>
<polygon fill="#000000" stroke="#000000" points="288.8478,-870.0192 282.6048,-861.4591 282.147,-872.044 288.8478,-870.0192"/>
<text text-anchor="middle" x="262.6841" y="-892.3585" font-family="Times,serif" font-size="14.00" fill="#000000">(SP|FF|TAB)</text>
</g>
<!-- LF&#45;&gt;LF -->
<g id="edge7" class="edge">
<title>LF-&gt;LF</title>
<path fill="none" stroke="#000000" d="M242.7634,-757.6662C235.3134,-771.0447 241.9536,-784.6897 262.6841,-784.6897 278.3939,-784.6897 286.012,-776.8536 285.5383,-767.2358"/>
<polygon fill="#000000" stroke="#000000" points="288.882,-766.2013 282.6048,-757.6662 282.1894,-768.2529 288.882,-766.2013"/>
<text text-anchor="middle" x="262.6841" y="-788.8897" font-family="Times,serif" font-size="14.00" fill="#000000">(LF|CR+LF)</text>
</g>
<!-- MLCMT_e&#45;&gt;MLCMT -->
<g id="edge13" class="edge">
<title>MLCMT_e-&gt;MLCMT</title>
<path fill="none" stroke="#000000" d="M443.9853,-951.3299C436.9859,-949.7903 429.8919,-948.4776 423.0509,-947.5854 389.3943,-943.1959 380.3742,-943.476 346.6823,-947.5854 337.1636,-948.7464 327.1698,-950.6215 317.5294,-952.7824"/>
<polygon fill="#000000" stroke="#000000" points="316.5719,-949.4122 307.6459,-955.1198 318.183,-956.2243 316.5719,-949.4122"/>
<text text-anchor="middle" x="384.8666" y="-951.5854" font-family="Times,serif" font-size="14.00" fill="#000000">ε / dpt1 != 0</text>
</g>
<!-- N_dot -->
<g id="node9" class="node">
<title>N_dot</title>
<ellipse fill="none" stroke="#000000" cx="501.4363" cy="-621.3854" rx="35.3548" ry="35.3548"/>
<text text-anchor="middle" x="501.4363" y="-617.1854" font-family="Times,serif" font-size="14.00" fill="#000000">N_dot</text>
</g>
<!-- N_flt -->
<g id="node13" class="node">
<title>N_flt</title>
<ellipse fill="none" stroke="#000000" cx="686.4696" cy="-596.3854" rx="31.3463" ry="31.3463"/>
<ellipse fill="none" stroke="#000000" cx="686.4696" cy="-596.3854" rx="35.3371" ry="35.3371"/>
<text text-anchor="middle" x="686.4696" y="-592.1854" font-family="Times,serif" font-size="14.00" fill="#000000">N_flt</text>
</g>
<!-- N_dot&#45;&gt;N_flt -->
<g id="edge17" class="edge">
<title>N_dot-&gt;N_flt</title>
<path fill="none" stroke="#000000" d="M536.6752,-616.6243C566.3843,-612.6102 609.0852,-606.8409 641.3006,-602.4883"/>
<polygon fill="#000000" stroke="#000000" points="641.9206,-605.9364 651.3619,-601.1289 640.9833,-598.9994 641.9206,-605.9364"/>
<text text-anchor="middle" x="597.7032" y="-613.5854" font-family="Times,serif" font-size="14.00" fill="#000000">/[0-9]/</text>
</g>
<!-- N_e -->
<g id="node10" class="node">
<title>N_e</title>
<ellipse fill="none" stroke="#000000" cx="834.3471" cy="-645.3854" rx="27.2467" ry="27.2467"/>
<text text-anchor="middle" x="834.3471" y="-641.1854" font-family="Times,serif" font-size="14.00" fill="#000000">N_e</text>
</g>
<!-- N_e_s -->
<g id="node11" class="node">
<title>N_e_s</title>
<ellipse fill="none" stroke="#000000" cx="962.8349" cy="-700.3854" rx="35.9154" ry="35.9154"/>
<text text-anchor="middle" x="962.8349" y="-696.1854" font-family="Times,serif" font-size="14.00" fill="#000000">N_e_s</text>
</g>
<!-- N_e&#45;&gt;N_e_s -->
<g id="edge21" class="edge">
<title>N_e-&gt;N_e_s</title>
<path fill="none" stroke="#000000" d="M859.4259,-656.1205C876.7007,-663.5152 900.0851,-673.525 920.2468,-682.1553"/>
<polygon fill="#000000" stroke="#000000" points="918.9758,-685.4184 929.5463,-686.1361 921.7305,-678.9832 918.9758,-685.4184"/>
<text text-anchor="middle" x="894.299" y="-679.5854" font-family="Times,serif" font-size="14.00" fill="#000000">/[+-]/</text>
</g>
<!-- N_exp -->
<g id="node14" class="node">
<title>N_exp</title>
<ellipse fill="none" stroke="#000000" cx="1111.085" cy="-645.3854" rx="36.5826" ry="36.5826"/>
<ellipse fill="none" stroke="#000000" cx="1111.085" cy="-645.3854" rx="40.5612" ry="40.5612"/>
<text text-anchor="middle" x="1111.085" y="-641.1854" font-family="Times,serif" font-size="14.00" fill="#000000">N_exp</text>
</g>
<!-- N_e&#45;&gt;N_exp -->
<g id="edge23" class="edge">
<title>N_e-&gt;N_exp</title>
<path fill="none" stroke="#000000" d="M861.5189,-642.868C879.9988,-641.2852 905.0157,-639.3946 927.1278,-638.5854 958.8462,-637.4246 966.8168,-637.6279 998.542,-638.5854 1018.6925,-639.1936 1040.8447,-640.413 1060.1267,-641.6534"/>
<polygon fill="#000000" stroke="#000000" points="1060.0073,-645.1531 1070.2166,-642.3208 1060.4694,-638.1684 1060.0073,-645.1531"/>
<text text-anchor="middle" x="962.8349" y="-642.5854" font-family="Times,serif" font-size="14.00" fill="#000000">/[0-9]/</text>
</g>
<!-- N_e_s&#45;&gt;N_exp -->
<g id="edge22" class="edge">
<title>N_e_s-&gt;N_exp</title>
<path fill="none" stroke="#000000" d="M996.4751,-687.9051C1016.1957,-680.5888 1041.431,-671.2267 1063.1997,-663.1506"/>
<polygon fill="#000000" stroke="#000000" points="1064.4488,-666.4204 1072.607,-659.6605 1062.014,-659.8574 1064.4488,-666.4204"/>
<text text-anchor="middle" x="1034.4235" y="-683.5854" font-family="Times,serif" font-size="14.00" fill="#000000">/[0-9]/</text>
</g>
<!-- N_dec&#45;&gt;N_dot -->
<g id="edge16" class="edge">
<title>N_dec-&gt;N_dot</title>
<path fill="none" stroke="#000000" d="M303.1852,-621.3854C345.5546,-621.3854 411.9181,-621.3854 456.0341,-621.3854"/>
<polygon fill="#000000" stroke="#000000" points="456.1916,-624.8855 466.1915,-621.3854 456.1915,-617.8855 456.1916,-624.8855"/>
<text text-anchor="middle" x="384.8666" y="-625.5854" font-family="Times,serif" font-size="14.00" fill="#000000">'.'</text>
</g>
<!-- N_dec&#45;&gt;N_e -->
<g id="edge20" class="edge">
<title>N_dec-&gt;N_e</title>
<path fill="none" stroke="#000000" d="M301.9867,-631.2624C316.079,-634.7903 332.0885,-638.7828 346.6823,-642.3854 516.6785,-684.3512 566.173,-700.2316 739.3545,-674.3854 759.5984,-671.3641 781.4925,-664.9096 799.1539,-658.8553"/>
<polygon fill="#000000" stroke="#000000" points="800.7586,-662.0003 809.0191,-655.3659 798.4243,-655.4009 800.7586,-662.0003"/>
<text text-anchor="middle" x="597.7032" y="-690.5854" font-family="Times,serif" font-size="14.00" fill="#000000">/[eE]/</text>
</g>
<!-- N_dec&#45;&gt;N_dec -->
<g id="edge15" class="edge">
<title>N_dec-&gt;N_dec</title>
<path fill="none" stroke="#000000" d="M239.9781,-654.6072C238.5549,-668.1773 246.1236,-679.6237 262.6841,-679.6237 274.8458,-679.6237 282.158,-673.4506 284.621,-664.7966"/>
<polygon fill="#000000" stroke="#000000" points="288.1274,-664.8423 285.3902,-654.6072 281.1472,-664.3153 288.1274,-664.8423"/>
<text text-anchor="middle" x="262.6841" y="-683.8237" font-family="Times,serif" font-size="14.00" fill="#000000">/[0-9_]/</text>
</g>
<!-- N_flt&#45;&gt;N_e -->
<g id="edge19" class="edge">
<title>N_flt-&gt;N_e</title>
<path fill="none" stroke="#000000" d="M720.3957,-607.627C743.8237,-615.39 774.9215,-625.6944 798.7112,-633.5773"/>
<polygon fill="#000000" stroke="#000000" points="797.8223,-636.9698 808.4156,-636.7929 800.0241,-630.3251 797.8223,-636.9698"/>
<text text-anchor="middle" x="773.2893" y="-633.5854" font-family="Times,serif" font-size="14.00" fill="#000000">/[eE]/</text>
</g>
<!-- N_flt&#45;&gt;N_flt -->
<g id="edge18" class="edge">
<title>N_flt-&gt;N_flt</title>
<path fill="none" stroke="#000000" d="M670.38,-628.193C669.8525,-640.0466 675.2157,-649.8039 686.4696,-649.8039 694.2066,-649.8039 699.1594,-645.192 701.3279,-638.4578"/>
<polygon fill="#000000" stroke="#000000" points="704.8432,-638.5387 702.5592,-628.193 697.893,-637.705 704.8432,-638.5387"/>
<text text-anchor="middle" x="686.4696" y="-654.0039" font-family="Times,serif" font-size="14.00" fill="#000000">/[0-9_]/</text>
</g>
<!-- N_exp&#45;&gt;N_exp -->
<g id="edge24" class="edge">
<title>N_exp-&gt;N_exp</title>
<path fill="none" stroke="#000000" d="M1096.8663,-683.8281C1097.2907,-695.2657 1102.0303,-704.1654 1111.085,-704.1654 1117.1686,-704.1654 1121.3043,-700.1479 1123.4921,-694.0425"/>
<polygon fill="#000000" stroke="#000000" points="1127.0035,-694.2857 1125.3036,-683.8281 1120.111,-693.0632 1127.0035,-694.2857"/>
<text text-anchor="middle" x="1111.085" y="-708.3654" font-family="Times,serif" font-size="14.00" fill="#000000">/[0-9_]/</text>
</g>
<!-- ID&#45;&gt;ID -->
<g id="edge26" class="edge">
<title>ID-&gt;ID</title>
<path fill="none" stroke="#000000" d="M243.0259,-520.7944C235.1626,-533.9884 241.7154,-547.6081 262.6841,-547.6081 278.4107,-547.6081 286.0282,-539.947 285.5368,-530.5503"/>
<polygon fill="#000000" stroke="#000000" points="288.7804,-529.2088 282.3423,-520.7944 282.128,-531.3871 288.7804,-529.2088"/>
<text text-anchor="middle" x="262.6841" y="-551.8081" font-family="Times,serif" font-size="14.00" fill="#000000">/[a-zA-Z0-9_]/</text>
</g>
<!-- STR&#45;&gt;STR -->
<g id="edge29" class="edge">
<title>STR-&gt;STR</title>
<path fill="none" stroke="#000000" d="M241.8252,-418.5653C235.9538,-432.0267 242.9068,-445.1299 262.6841,-445.1299 277.5171,-445.1299 285.1364,-437.7594 285.542,-428.3951"/>
<polygon fill="#000000" stroke="#000000" points="288.9657,-427.6672 283.543,-418.5653 282.1061,-429.0623 288.9657,-427.6672"/>
<text text-anchor="middle" x="262.6841" y="-449.3299" font-family="Times,serif" font-size="14.00" fill="#000000">/[\x20-\x7E]/</text>
</g>
<!-- STR_esc -->
<g id="node18" class="node">
<title>STR_esc</title>
<ellipse fill="none" stroke="#000000" cx="501.4363" cy="-367.3854" rx="45.8041" ry="45.8041"/>
<text text-anchor="middle" x="501.4363" y="-363.1854" font-family="Times,serif" font-size="14.00" fill="#000000">STR_esc</text>
</g>
<!-- STR&#45;&gt;STR_esc -->
<g id="edge30" class="edge">
<title>STR-&gt;STR_esc</title>
<path fill="none" stroke="#000000" d="M288.9282,-386.524C305.1916,-379.8223 326.7192,-372.1014 346.6823,-368.5854 378.9915,-362.895 415.686,-362.3599 445.2323,-363.3568"/>
<polygon fill="#000000" stroke="#000000" points="445.2326,-366.8596 455.3661,-363.7673 445.516,-359.8653 445.2326,-366.8596"/>
<text text-anchor="middle" x="384.8666" y="-372.5854" font-family="Times,serif" font-size="14.00" fill="#000000">'\'</text>
</g>
<!-- STR_e -->
<g id="node22" class="node">
<title>STR_e</title>
<ellipse fill="none" stroke="#000000" cx="501.4363" cy="-526.3854" rx="37.7331" ry="37.7331"/>
<ellipse fill="none" stroke="#000000" cx="501.4363" cy="-526.3854" rx="41.7197" ry="41.7197"/>
<text text-anchor="middle" x="501.4363" y="-522.1854" font-family="Times,serif" font-size="14.00" fill="#000000">STR_e</text>
</g>
<!-- STR&#45;&gt;STR_e -->
<g id="edge37" class="edge">
<title>STR-&gt;STR_e</title>
<path fill="none" stroke="#000000" d="M284.3223,-417.7997C300.6304,-431.7467 323.9932,-450.3163 346.6823,-463.3854 380.1375,-482.656 420.6359,-498.9178 451.8108,-510.0906"/>
<polygon fill="#000000" stroke="#000000" points="450.9894,-513.5121 461.5842,-513.5366 453.3172,-506.9104 450.9894,-513.5121"/>
<text text-anchor="middle" x="384.8666" y="-502.5854" font-family="Times,serif" font-size="14.00" fill="#000000">'"'</text>
</g>
<!-- MLSTR&#45;&gt;MLSTR -->
<g id="edge38" class="edge">
<title>MLSTR-&gt;MLSTR</title>
<path fill="none" stroke="#000000" d="M239.844,-206.1468C239.225,-219.5959 246.8384,-230.6134 262.6841,-230.6134 274.3208,-230.6134 281.5177,-224.6716 284.2749,-216.1884"/>
<polygon fill="#000000" stroke="#000000" points="287.7627,-216.5025 285.5242,-206.1468 280.8163,-215.6382 287.7627,-216.5025"/>
<text text-anchor="middle" x="262.6841" y="-234.8134" font-family="Times,serif" font-size="14.00" fill="#000000">any</text>
</g>
<!-- MLSTR_esc -->
<g id="node20" class="node">
<title>MLSTR_esc</title>
<ellipse fill="none" stroke="#000000" cx="501.4363" cy="-60.3854" rx="60.2711" ry="60.2711"/>
<text text-anchor="middle" x="501.4363" y="-56.1854" font-family="Times,serif" font-size="14.00" fill="#000000">MLSTR_esc</text>
</g>
<!-- MLSTR&#45;&gt;MLSTR_esc -->
<g id="edge39" class="edge">
<title>MLSTR-&gt;MLSTR_esc</title>
<path fill="none" stroke="#000000" d="M300.4441,-147.7913C314.6631,-140.1709 331.1525,-131.929 346.6823,-125.5854 379.5215,-112.1714 390.2875,-115.9837 423.0509,-102.3854 428.4405,-100.1485 433.9474,-97.6565 439.4194,-95.0336"/>
<polygon fill="#000000" stroke="#000000" points="441.1504,-98.0824 448.5685,-90.5178 438.0522,-91.8053 441.1504,-98.0824"/>
<text text-anchor="middle" x="384.8666" y="-130.5854" font-family="Times,serif" font-size="14.00" fill="#000000">'\'</text>
</g>
<!-- MLSTR_e -->
<g id="node23" class="node">
<title>MLSTR_e</title>
<ellipse fill="none" stroke="#000000" cx="501.4363" cy="-247.3854" rx="52.1978" ry="52.1978"/>
<ellipse fill="none" stroke="#000000" cx="501.4363" cy="-247.3854" rx="56.1867" ry="56.1867"/>
<text text-anchor="middle" x="501.4363" y="-243.1854" font-family="Times,serif" font-size="14.00" fill="#000000">MLSTR_e</text>
</g>
<!-- MLSTR&#45;&gt;MLSTR_e -->
<g id="edge46" class="edge">
<title>MLSTR-&gt;MLSTR_e</title>
<path fill="none" stroke="#000000" d="M303.999,-182.8829C340.8973,-194.9376 395.514,-212.7808 437.956,-226.6465"/>
<polygon fill="#000000" stroke="#000000" points="437.0457,-230.0311 447.6382,-229.8097 439.2196,-223.3772 437.0457,-230.0311"/>
<text text-anchor="middle" x="384.8666" y="-224.5854" font-family="Times,serif" font-size="14.00" fill="#000000">'"""'</text>
</g>
<!-- STR_esc&#45;&gt;Start -->
<g id="edge35" class="edge">
<title>STR_esc-&gt;Start</title>
<path fill="none" stroke="#000000" d="M456.9824,-355.9315C397.1458,-342.3176 287.693,-323.7841 196.686,-343.5854 150.9048,-353.5465 134.6049,-354.9469 100.7984,-387.3854 74.3883,-412.7268 57.7314,-452.3462 48.9882,-478.3389"/>
<polygon fill="#000000" stroke="#000000" points="45.6416,-477.3131 45.9205,-487.9043 52.3072,-479.4509 45.6416,-477.3131"/>
<text text-anchor="middle" x="262.6841" y="-347.5854" font-family="Times,serif" font-size="14.00" fill="#000000">'(' / *note2</text>
</g>
<!-- STR_esc&#45;&gt;STR -->
<g id="edge31" class="edge">
<title>STR_esc-&gt;STR</title>
<path fill="none" stroke="#000000" d="M456.8843,-378.7919C445.8846,-381.2822 434.0901,-383.6797 423.0509,-385.3854 381.8259,-391.7554 334.1256,-395.1174 301.5336,-396.8131"/>
<polygon fill="#000000" stroke="#000000" points="301.3257,-393.319 291.51,-397.3068 301.6701,-400.3105 301.3257,-393.319"/>
<text text-anchor="middle" x="384.8666" y="-397.5854" font-family="Times,serif" font-size="14.00" fill="#000000">/[\\0tnr"']/</text>
</g>
<!-- STR_u -->
<g id="node19" class="node">
<title>STR_u</title>
<ellipse fill="none" stroke="#000000" cx="686.4696" cy="-428.3854" rx="38.303" ry="38.303"/>
<text text-anchor="middle" x="686.4696" y="-424.1854" font-family="Times,serif" font-size="14.00" fill="#000000">STR_u</text>
</g>
<!-- STR_esc&#45;&gt;STR_u -->
<g id="edge32" class="edge">
<title>STR_esc-&gt;STR_u</title>
<path fill="none" stroke="#000000" d="M545.2866,-381.8416C573.8991,-391.2743 611.1932,-403.569 640.2654,-413.1533"/>
<polygon fill="#000000" stroke="#000000" points="639.192,-416.4847 649.7851,-416.2916 641.3837,-409.8366 639.192,-416.4847"/>
<text text-anchor="middle" x="597.7032" y="-406.5854" font-family="Times,serif" font-size="14.00" fill="#000000">'u{'</text>
</g>
<!-- STR_u&#45;&gt;STR -->
<g id="edge34" class="edge">
<title>STR_u-&gt;STR</title>
<path fill="none" stroke="#000000" d="M648.0413,-429.1732C584.8523,-429.9386 455.1859,-429.2777 346.6823,-414.3854 331.6521,-412.3225 315.236,-409.3569 300.9357,-406.538"/>
<polygon fill="#000000" stroke="#000000" points="301.4411,-403.0695 290.9469,-404.5263 300.059,-409.9318 301.4411,-403.0695"/>
<text text-anchor="middle" x="501.4363" y="-432.5854" font-family="Times,serif" font-size="14.00" fill="#000000">'}'</text>
</g>
<!-- STR_u&#45;&gt;STR_u -->
<g id="edge33" class="edge">
<title>STR_u-&gt;STR_u</title>
<path fill="none" stroke="#000000" d="M670.3456,-463.3605C670.2609,-475.2391 675.6356,-484.7868 686.4696,-484.7868 693.9179,-484.7868 698.7859,-480.274 701.0735,-473.5936"/>
<polygon fill="#000000" stroke="#000000" points="704.5862,-473.7662 702.5936,-463.3605 697.6622,-472.7377 704.5862,-473.7662"/>
<text text-anchor="middle" x="686.4696" y="-488.9868" font-family="Times,serif" font-size="14.00" fill="#000000">/[0-9a-fA-F]/</text>
</g>
<!-- MLSTR_esc&#45;&gt;Start -->
<g id="edge44" class="edge">
<title>MLSTR_esc-&gt;Start</title>
<path fill="none" stroke="#000000" d="M441.1102,-54.5237C347.8773,-49.3121 172.1029,-55.7465 100.7984,-167.3854 67.8718,-218.9373 49.4825,-405.6155 43.5485,-476.6685"/>
<polygon fill="#000000" stroke="#000000" points="40.0579,-476.4113 42.7328,-486.6629 47.0347,-476.9808 40.0579,-476.4113"/>
<text text-anchor="middle" x="262.6841" y="-93.5854" font-family="Times,serif" font-size="14.00" fill="#000000">'(' / *note2</text>
</g>
<!-- MLSTR_esc&#45;&gt;MLSTR -->
<g id="edge40" class="edge">
<title>MLSTR_esc-&gt;MLSTR</title>
<path fill="none" stroke="#000000" d="M440.9254,-64.5773C404.8191,-67.8654 362.9264,-73.2964 346.6823,-81.5854 326.3358,-91.9677 308.1735,-109.2752 293.9878,-125.792"/>
<polygon fill="#000000" stroke="#000000" points="291.0356,-123.8693 287.3513,-133.8029 296.4261,-128.335 291.0356,-123.8693"/>
<text text-anchor="middle" x="384.8666" y="-86.5854" font-family="Times,serif" font-size="14.00" fill="#000000">/[\\0tnr"']/</text>
</g>
<!-- MLSTR_u -->
<g id="node21" class="node">
<title>MLSTR_u</title>
<ellipse fill="none" stroke="#000000" cx="686.4696" cy="-124.3854" rx="52.77" ry="52.77"/>
<text text-anchor="middle" x="686.4696" y="-120.1854" font-family="Times,serif" font-size="14.00" fill="#000000">MLSTR_u</text>
</g>
<!-- MLSTR_esc&#45;&gt;MLSTR_u -->
<g id="edge41" class="edge">
<title>MLSTR_esc-&gt;MLSTR_u</title>
<path fill="none" stroke="#000000" d="M558.7148,-80.1971C580.3494,-87.6802 605.0066,-96.2087 626.8506,-103.7642"/>
<polygon fill="#000000" stroke="#000000" points="625.7497,-107.0868 636.3445,-107.048 628.038,-100.4714 625.7497,-107.0868"/>
<text text-anchor="middle" x="597.7032" y="-102.5854" font-family="Times,serif" font-size="14.00" fill="#000000">'u{'</text>
</g>
<!-- MLSTR_u&#45;&gt;MLSTR -->
<g id="edge43" class="edge">
<title>MLSTR_u-&gt;MLSTR</title>
<path fill="none" stroke="#000000" d="M633.6128,-129.9981C552.3713,-138.6248 397.6761,-155.0512 316.0994,-163.7135"/>
<polygon fill="#000000" stroke="#000000" points="315.6195,-160.2447 306.045,-164.7811 316.3587,-167.2055 315.6195,-160.2447"/>
<text text-anchor="middle" x="501.4363" y="-154.5854" font-family="Times,serif" font-size="14.00" fill="#000000">'}'</text>
</g>
<!-- MLSTR_u&#45;&gt;MLSTR_u -->
<g id="edge42" class="edge">
<title>MLSTR_u-&gt;MLSTR_u</title>
<path fill="none" stroke="#000000" d="M670.6999,-175.0405C672.0587,-186.7032 677.3153,-195.2703 686.4696,-195.2703 692.7632,-195.2703 697.2145,-191.221 699.8235,-184.9004"/>
<polygon fill="#000000" stroke="#000000" points="703.2589,-185.5862 702.2393,-175.0405 696.46,-183.9203 703.2589,-185.5862"/>
<text text-anchor="middle" x="686.4696" y="-199.4703" font-family="Times,serif" font-size="14.00" fill="#000000">/[0-9a-fA-F]/</text>
</g>
</g>
</svg>